<?xml version="1.0" encoding="UTF-8" standalone="no"?>
<!DOCTYPE svg PUBLIC "-//W3C//DTD SVG 1.1//EN"
 "http://www.w3.org/Graphics/SVG/1.1/DTD/svg11.dtd">
<!-- Generated by graphviz version 2.40.1 (20161225.0304)
 -->
<!-- Title: G Pages: 1 -->
<svg width="1074pt" height="340pt"
 viewBox="0.00 0.00 1073.51 339.98" xmlns="http://www.w3.org/2000/svg" xmlns:xlink="http://www.w3.org/1999/xlink">
<g id="graph0" class="graph" transform="scale(1 1) rotate(0) translate(7.992 331.992)">
<title>G</title>
<polygon fill="#000000" stroke="transparent" points="-7.992,7.992 -7.992,-331.992 1065.5166,-331.992 1065.5166,7.992 -7.992,7.992"/>
<!-- out/app.js -->
<g id="node1" class="node">
<title>out/app.js</title>
<ellipse fill="none" stroke="#c6c5fe" cx="366.7662" cy="-234" rx="51.7583" ry="18"/>
<text text-anchor="middle" x="366.7662" y="-230.8493" font-family="Arial" font-size="14.00" fill="#c6c5fe">out/app.js</text>
</g>
<!-- out/components/counter.js -->
<g id="node2" class="node">
<title>out/components/counter.js</title>
<ellipse fill="none" stroke="#cfffac" cx="120.7662" cy="-162" rx="120.5329" ry="18"/>
<text text-anchor="middle" x="120.7662" y="-158.8493" font-family="Arial" font-size="14.00" fill="#cfffac">out/components/counter.js</text>
</g>
<!-- out/app.js&#45;&gt;out/components/counter.js -->
<g id="edge1" class="edge">
<title>out/app.js&#45;&gt;out/components/counter.js</title>
<path fill="none" stroke="#757575" d="M326.9687,-222.3519C288.7091,-211.154 230.2306,-194.0383 185.308,-180.8903"/>
<polygon fill="#757575" stroke="#757575" points="186.2323,-177.514 175.6517,-178.064 184.2659,-184.2322 186.2323,-177.514"/>
</g>
<!-- out/components/list&#45;view.js -->
<g id="node3" class="node">
<title>out/components/list&#45;view.js</title>
<ellipse fill="none" stroke="#cfffac" cx="382.7662" cy="-162" rx="122.6827" ry="18"/>
<text text-anchor="middle" x="382.7662" y="-158.8493" font-family="Arial" font-size="14.00" fill="#cfffac">out/components/list&#45;view.js</text>
</g>
<!-- out/app.js&#45;&gt;out/components/list&#45;view.js -->
<g id="edge2" class="edge">
<title>out/app.js&#45;&gt;out/components/list&#45;view.js</title>
<path fill="none" stroke="#757575" d="M370.8037,-215.8314C372.5149,-208.131 374.5497,-198.9743 376.4514,-190.4166"/>
<polygon fill="#757575" stroke="#757575" points="379.9217,-190.9344 378.6744,-180.4133 373.0884,-189.4159 379.9217,-190.9344"/>
</g>
<!-- out/features/counters/actions.js -->
<g id="node4" class="node">
<title>out/features/counters/actions.js</title>
<ellipse fill="none" stroke="#cfffac" cx="914.7662" cy="-18" rx="141.37" ry="18"/>
<text text-anchor="middle" x="914.7662" y="-14.8493" font-family="Arial" font-size="14.00" fill="#cfffac">out/features/counters/actions.js</text>
</g>
<!-- out/features/counters/reducer.js -->
<g id="node5" class="node">
<title>out/features/counters/reducer.js</title>
<ellipse fill="none" stroke="#c6c5fe" cx="914.7662" cy="-90" rx="142.5172" ry="18"/>
<text text-anchor="middle" x="914.7662" y="-86.8493" font-family="Arial" font-size="14.00" fill="#c6c5fe">out/features/counters/reducer.js</text>
</g>
<!-- out/features/counters/reducer.js&#45;&gt;out/features/counters/actions.js -->
<g id="edge3" class="edge">
<title>out/features/counters/reducer.js&#45;&gt;out/features/counters/actions.js</title>
<path fill="none" stroke="#757575" d="M914.7662,-71.8314C914.7662,-64.131 914.7662,-54.9743 914.7662,-46.4166"/>
<polygon fill="#757575" stroke="#757575" points="918.2663,-46.4132 914.7662,-36.4133 911.2663,-46.4133 918.2663,-46.4132"/>
</g>
<!-- out/features/root&#45;epic.js -->
<g id="node6" class="node">
<title>out/features/root&#45;epic.js</title>
<ellipse fill="none" stroke="#cfffac" cx="663.7662" cy="-162" rx="109.4642" ry="18"/>
<text text-anchor="middle" x="663.7662" y="-158.8493" font-family="Arial" font-size="14.00" fill="#cfffac">out/features/root&#45;epic.js</text>
</g>
<!-- out/features/root&#45;reducer.js -->
<g id="node7" class="node">
<title>out/features/root&#45;reducer.js</title>
<ellipse fill="none" stroke="#c6c5fe" cx="914.7662" cy="-162" rx="123.25" ry="18"/>
<text text-anchor="middle" x="914.7662" y="-158.8493" font-family="Arial" font-size="14.00" fill="#c6c5fe">out/features/root&#45;reducer.js</text>
</g>
<!-- out/features/root&#45;reducer.js&#45;&gt;out/features/counters/reducer.js -->
<g id="edge4" class="edge">
<title>out/features/root&#45;reducer.js&#45;&gt;out/features/counters/reducer.js</title>
<path fill="none" stroke="#757575" d="M914.7662,-143.8314C914.7662,-136.131 914.7662,-126.9743 914.7662,-118.4166"/>
<polygon fill="#757575" stroke="#757575" points="918.2663,-118.4132 914.7662,-108.4133 911.2663,-118.4133 918.2663,-118.4132"/>
</g>
<!-- out/index.js -->
<g id="node8" class="node">
<title>out/index.js</title>
<ellipse fill="none" stroke="#c6c5fe" cx="520.7662" cy="-306" rx="58.3674" ry="18"/>
<text text-anchor="middle" x="520.7662" y="-302.8493" font-family="Arial" font-size="14.00" fill="#c6c5fe">out/index.js</text>
</g>
<!-- out/index.js&#45;&gt;out/app.js -->
<g id="edge5" class="edge">
<title>out/index.js&#45;&gt;out/app.js</title>
<path fill="none" stroke="#757575" d="M488.4828,-290.9064C464.7859,-279.8274 432.4422,-264.7056 407.0519,-252.8349"/>
<polygon fill="#757575" stroke="#757575" points="408.2351,-249.5244 397.6939,-248.4597 405.2703,-255.8656 408.2351,-249.5244"/>
</g>
<!-- out/rxjs&#45;imports.js -->
<g id="node9" class="node">
<title>out/rxjs&#45;imports.js</title>
<ellipse fill="none" stroke="#cfffac" cx="520.7662" cy="-234" rx="84.6793" ry="18"/>
<text text-anchor="middle" x="520.7662" y="-230.8493" font-family="Arial" font-size="14.00" fill="#cfffac">out/rxjs&#45;imports.js</text>
</g>
<!-- out/index.js&#45;&gt;out/rxjs&#45;imports.js -->
<g id="edge6" class="edge">
<title>out/index.js&#45;&gt;out/rxjs&#45;imports.js</title>
<path fill="none" stroke="#757575" d="M520.7662,-287.8314C520.7662,-280.131 520.7662,-270.9743 520.7662,-262.4166"/>
<polygon fill="#757575" stroke="#757575" points="524.2663,-262.4132 520.7662,-252.4133 517.2663,-262.4133 524.2663,-262.4132"/>
</g>
<!-- out/store.js -->
<g id="node10" class="node">
<title>out/store.js</title>
<ellipse fill="none" stroke="#c6c5fe" cx="679.7662" cy="-234" rx="56.7115" ry="18"/>
<text text-anchor="middle" x="679.7662" y="-230.8493" font-family="Arial" font-size="14.00" fill="#c6c5fe">out/store.js</text>
</g>
<!-- out/index.js&#45;&gt;out/store.js -->
<g id="edge7" class="edge">
<title>out/index.js&#45;&gt;out/store.js</title>
<path fill="none" stroke="#757575" d="M553.7111,-291.0816C578.0958,-280.0394 611.5029,-264.9117 637.7994,-253.0039"/>
<polygon fill="#757575" stroke="#757575" points="639.4702,-256.0895 647.1359,-248.776 636.5826,-249.7128 639.4702,-256.0895"/>
</g>
<!-- out/store.js&#45;&gt;out/features/root&#45;epic.js -->
<g id="edge8" class="edge">
<title>out/store.js&#45;&gt;out/features/root&#45;epic.js</title>
<path fill="none" stroke="#757575" d="M675.7288,-215.8314C674.0176,-208.131 671.9828,-198.9743 670.081,-190.4166"/>
<polygon fill="#757575" stroke="#757575" points="673.4441,-189.4159 667.8581,-180.4133 666.6108,-190.9344 673.4441,-189.4159"/>
</g>
<!-- out/store.js&#45;&gt;out/features/root&#45;reducer.js -->
<g id="edge9" class="edge">
<title>out/store.js&#45;&gt;out/features/root&#45;reducer.js</title>
<path fill="none" stroke="#757575" d="M720.7001,-221.4586C756.8575,-210.3805 810.148,-194.0532 851.7421,-181.3095"/>
<polygon fill="#757575" stroke="#757575" points="852.9694,-184.5942 861.5054,-178.3182 850.9187,-177.9013 852.9694,-184.5942"/>
</g>
</g>
</svg>
